<mxfile host="65bd71144e">
    <diagram id="K9tdpp2gKXIHnt1HSWHF" name="Página-1">
        <mxGraphModel dx="554" dy="1989" grid="1" gridSize="10" guides="1" tooltips="1" connect="1" arrows="1" fold="1" page="1" pageScale="1" pageWidth="900" pageHeight="1600" background="#ffffff" math="0" shadow="0">
            <root>
                <mxCell id="0"/>
                <mxCell id="1" parent="0"/>
                <UserObject label="" lucidchartObjectId="sv5FRH7WopwM" id="27">
                    <mxCell style="html=1;jettySize=18;whiteSpace=wrap;fontSize=13.3;fontColor=#333333;fontStyle=1;strokeColor=#5E5E5E;strokeWidth=1.5;rounded=1;arcSize=12;edgeStyle=orthogonalEdgeStyle;startArrow=none;endArrow=block;endFill=1;exitX=0.009;exitY=0.5;exitPerimeter=0;entryX=0.009;entryY=0.5;entryPerimeter=0;" parent="1" edge="1">
                        <mxGeometry width="100" height="100" relative="1" as="geometry">
                            <Array as="points">
                                <mxPoint x="735" y="1425"/>
                                <mxPoint x="735" y="1114"/>
                            </Array>
                            <mxPoint x="836.1699999999992" y="1113.999999999999" as="targetPoint"/>
                        </mxGeometry>
                    </mxCell>
                </UserObject>
                <mxCell id="28" value="Não" style="text;html=1;resizable=0;labelBackgroundColor=default;align=center;verticalAlign=middle;fontStyle=1;fontColor=#333333;fontSize=13.3;" parent="27" vertex="1">
                    <mxGeometry relative="1" as="geometry"/>
                </mxCell>
                <UserObject label="QUESTÃO 05 - AdemarROV" lucidchartObjectId="hB5FAly2sNbj" id="34">
                    <mxCell style="html=1;overflow=block;blockSpacing=1;whiteSpace=wrap;fontSize=16.7;fontColor=#333333;spacing=0;strokeColor=#5e5e5e;strokeOpacity=100;rounded=1;absoluteArcSize=1;arcSize=9;strokeWidth=2.3;fillColor=none;" parent="1" vertex="1">
                        <mxGeometry x="165" y="-1510" width="180" height="45" as="geometry"/>
                    </mxCell>
                </UserObject>
                <mxCell id="98" value="" style="edgeStyle=none;html=1;" edge="1" parent="1" source="67" target="97">
                    <mxGeometry relative="1" as="geometry"/>
                </mxCell>
                <UserObject label="INICIO" lucidchartObjectId="Ef6FRvu7aNQY" id="67">
                    <mxCell style="html=1;overflow=block;blockSpacing=1;whiteSpace=wrap;ellipse;fontSize=13;spacing=3.8;strokeColor=#5e5e5e;strokeOpacity=100;rounded=1;absoluteArcSize=1;arcSize=9;strokeWidth=2.3;" parent="1" vertex="1">
                        <mxGeometry x="530" y="-1510" width="120" height="90" as="geometry"/>
                    </mxCell>
                </UserObject>
                <mxCell id="79" value="" style="edgeStyle=none;html=1;" parent="1" source="68" target="78" edge="1">
                    <mxGeometry relative="1" as="geometry"/>
                </mxCell>
                <UserObject label="numero" lucidchartObjectId="Ef6F7oB6qikC" id="68">
                    <mxCell style="html=1;overflow=block;blockSpacing=1;whiteSpace=wrap;shape=manualInput;size=15;fontSize=16.7;fontColor=#333333;spacing=3.8;strokeColor=#5e5e5e;strokeOpacity=100;rounded=1;absoluteArcSize=1;arcSize=9;strokeWidth=2.3;" parent="1" vertex="1">
                        <mxGeometry x="529" y="-1180" width="120" height="90" as="geometry"/>
                    </mxCell>
                </UserObject>
                <mxCell id="105" value="" style="edgeStyle=elbowEdgeStyle;html=1;strokeColor=#FF0000;" edge="1" parent="1" source="78" target="104">
                    <mxGeometry relative="1" as="geometry"/>
                </mxCell>
                <mxCell id="110" value="NÃO" style="edgeLabel;html=1;align=center;verticalAlign=middle;resizable=0;points=[];" vertex="1" connectable="0" parent="105">
                    <mxGeometry x="-0.465" relative="1" as="geometry">
                        <mxPoint as="offset"/>
                    </mxGeometry>
                </mxCell>
                <mxCell id="78" value="numero = num_ale" style="rhombus;whiteSpace=wrap;html=1;fontSize=16.7;strokeColor=#5e5e5e;fontColor=#333333;spacing=3.8;rounded=1;arcSize=9;strokeWidth=2.3;" parent="1" vertex="1">
                    <mxGeometry x="530.7" y="-1023" width="116.59" height="108" as="geometry"/>
                </mxCell>
                <mxCell id="100" style="edgeStyle=elbowEdgeStyle;html=1;exitX=1;exitY=0.5;exitDx=0;exitDy=0;entryX=1;entryY=0.5;entryDx=0;entryDy=0;strokeColor=#00CC00;entryPerimeter=0;" edge="1" parent="1" source="78" target="112">
                    <mxGeometry relative="1" as="geometry">
                        <Array as="points">
                            <mxPoint x="740" y="-830"/>
                        </Array>
                    </mxGeometry>
                </mxCell>
                <mxCell id="101" value="SIM" style="edgeLabel;html=1;align=center;verticalAlign=middle;resizable=0;points=[];" vertex="1" connectable="0" parent="100">
                    <mxGeometry x="-0.0391" y="1" relative="1" as="geometry">
                        <mxPoint as="offset"/>
                    </mxGeometry>
                </mxCell>
                <mxCell id="114" style="edgeStyle=elbowEdgeStyle;html=1;exitX=0.536;exitY=1;exitDx=0;exitDy=0;entryX=0.5;entryY=0;entryDx=0;entryDy=0;strokeColor=#000000;exitPerimeter=0;" edge="1" parent="1" source="112" target="92">
                    <mxGeometry relative="1" as="geometry"/>
                </mxCell>
                <UserObject label="FIM" lucidchartObjectId="Ef6FRvu7aNQY" id="92">
                    <mxCell style="html=1;overflow=block;blockSpacing=1;whiteSpace=wrap;ellipse;fontSize=13;spacing=3.8;strokeColor=#5e5e5e;strokeOpacity=100;rounded=1;absoluteArcSize=1;arcSize=9;strokeWidth=2.3;" parent="1" vertex="1">
                        <mxGeometry x="528.99" y="-390" width="120" height="70" as="geometry"/>
                    </mxCell>
                </UserObject>
                <mxCell id="99" value="" style="edgeStyle=none;html=1;" edge="1" parent="1" source="97" target="68">
                    <mxGeometry relative="1" as="geometry"/>
                </mxCell>
                <mxCell id="97" value="tentativas &amp;lt;- 0&lt;br&gt;num_ale &amp;lt;- aleatorio 0,20" style="whiteSpace=wrap;html=1;fontSize=13;strokeColor=#5e5e5e;spacing=3.8;rounded=1;arcSize=9;strokeWidth=2.3;" vertex="1" parent="1">
                    <mxGeometry x="503.99" y="-1350" width="170" height="85" as="geometry"/>
                </mxCell>
                <mxCell id="107" value="" style="edgeStyle=elbowEdgeStyle;html=1;strokeColor=#FF0000;" edge="1" parent="1" source="104" target="106">
                    <mxGeometry relative="1" as="geometry"/>
                </mxCell>
                <mxCell id="111" value="NÃO" style="edgeLabel;html=1;align=center;verticalAlign=middle;resizable=0;points=[];" vertex="1" connectable="0" parent="107">
                    <mxGeometry x="0.23" relative="1" as="geometry">
                        <mxPoint as="offset"/>
                    </mxGeometry>
                </mxCell>
                <mxCell id="104" value="tentativas &amp;lt;- tentativas + 1" style="whiteSpace=wrap;html=1;fontSize=16.7;strokeColor=#5e5e5e;fontColor=#333333;spacing=3.8;rounded=1;arcSize=9;strokeWidth=2.3;" vertex="1" parent="1">
                    <mxGeometry x="528.995" y="-840" width="120" height="60" as="geometry"/>
                </mxCell>
                <mxCell id="108" style="edgeStyle=elbowEdgeStyle;html=1;exitX=0;exitY=0.5;exitDx=0;exitDy=0;entryX=0;entryY=0.5;entryDx=0;entryDy=0;strokeColor=#FF0000;" edge="1" parent="1" source="106" target="68">
                    <mxGeometry relative="1" as="geometry">
                        <Array as="points">
                            <mxPoint x="450" y="-900"/>
                        </Array>
                    </mxGeometry>
                </mxCell>
                <mxCell id="109" value="NÃO" style="edgeLabel;html=1;align=center;verticalAlign=middle;resizable=0;points=[];" vertex="1" connectable="0" parent="108">
                    <mxGeometry x="0.0951" y="-1" relative="1" as="geometry">
                        <mxPoint as="offset"/>
                    </mxGeometry>
                </mxCell>
                <mxCell id="113" style="edgeStyle=elbowEdgeStyle;html=1;exitX=0.5;exitY=1;exitDx=0;exitDy=0;strokeColor=#00CC00;entryX=0.546;entryY=0;entryDx=0;entryDy=0;entryPerimeter=0;" edge="1" parent="1" source="106" target="112">
                    <mxGeometry relative="1" as="geometry">
                        <mxPoint x="590" y="-510" as="targetPoint"/>
                    </mxGeometry>
                </mxCell>
                <mxCell id="116" value="SIM" style="edgeLabel;html=1;align=center;verticalAlign=middle;resizable=0;points=[];" vertex="1" connectable="0" parent="113">
                    <mxGeometry x="-0.572" relative="1" as="geometry">
                        <mxPoint y="8" as="offset"/>
                    </mxGeometry>
                </mxCell>
                <mxCell id="106" value="tentativas = 5" style="rhombus;whiteSpace=wrap;html=1;fontSize=16.7;strokeColor=#5e5e5e;fontColor=#333333;spacing=3.8;rounded=1;arcSize=9;strokeWidth=2.3;" vertex="1" parent="1">
                    <mxGeometry x="524.49" y="-680" width="131.01" height="119" as="geometry"/>
                </mxCell>
                <mxCell id="112" value="num_ale" style="shape=display;whiteSpace=wrap;html=1;" vertex="1" parent="1">
                    <mxGeometry x="524.49" y="-500" width="120" height="60" as="geometry"/>
                </mxCell>
            </root>
        </mxGraphModel>
    </diagram>
</mxfile>